<svg id="Capa_1" enable-background="new 0 0 510 510" height="512" viewBox="0 0 510 510" width="512" xmlns="http://www.w3.org/2000/svg"><path d="m388.986 459.641c-106.341-22.068-181.389-53.493-234.353-104.274-55.427-53.113-86.669-127.417-104.274-234.353l92.372-25.424 91.141-25.069 253.925-69.874c6.563-1.802 12.852.306 17.051 4.505s6.306 10.488 4.505 17.051l-34.276 124.582-33.301 121.028z" fill="#ffeb99"/><path d="m388.986 459.641c-106.341-22.068-181.389-53.493-234.353-104.274l350.215-350.215c4.199 4.199 6.306 10.488 4.505 17.051l-34.276 124.582-33.301 121.028z" fill="#ffda44"/><path d="m387.06 507.72c-95.026 11.993-200.937-23.448-281.134-103.646s-115.639-186.108-103.646-281.134c1.322-10.48 9.257-18.911 19.613-21.002l20.622-4.157c15.919-3.207 30.4 9.555 29.507 25.755-4.248 76.9 26.548 159.933 90.529 223.914s147.014 94.778 223.914 90.529c16.2-.893 28.961 13.588 25.755 29.507l-4.157 20.622c-2.092 10.355-10.523 18.29-21.003 19.612z" fill="#ea9c62"/><path d="m387.06 507.72c-95.026 11.993-200.937-23.448-281.134-103.646l56.625-56.625c63.981 63.981 147.014 94.778 223.914 90.529 16.2-.893 28.961 13.588 25.755 29.507l-4.157 20.622c-2.092 10.356-10.523 18.291-21.003 19.613z" fill="#c47e4e"/><path d="m227.34 132.565c-31.971 31.971-86.307 7.729-84.606-36.971l91.14-25.079c12.496 19.224 10.318 45.198-6.534 62.05z" fill="#ff0059"/><path d="m183.124 222.744h-22.626c-8.284 0-15-6.716-15-15s6.716-15 15-15h22.626c8.284 0 15 6.716 15 15s-6.716 15-15 15z" fill="#00cc71"/><g fill="#00ab5e"><path d="m385.038 93.18c-6.929-4.542-8.863-13.84-4.321-20.769l12.405-18.923c4.543-6.929 13.841-8.861 20.769-4.32 6.929 4.542 8.863 13.84 4.321 20.769l-12.405 18.923c-4.541 6.924-13.837 8.864-20.769 4.32z"/><path d="m305.667 155.064-19.791-10.966c-7.246-4.015-9.865-13.145-5.85-20.391s13.143-9.864 20.391-5.851l19.791 10.966c7.246 4.015 9.865 13.145 5.85 20.391-4.009 7.237-13.132 9.872-20.391 5.851z"/><path d="m350.661 392.32c-.158 0-.315-.002-.475-.007l-22.615-.703c-8.28-.257-14.784-7.179-14.527-15.459.258-8.28 7.193-14.782 15.459-14.526l22.615.703c8.28.257 14.784 7.179 14.527 15.459-.253 8.121-6.917 14.533-14.984 14.533z"/></g><path d="m475.076 146.786-33.306 121.027c-34.405-1.348-61.867-29.661-61.867-64.379.001-49.037 52.591-79.823 95.173-56.648z" fill="#e50058"/><path d="m313.036 328.565c-21.02 0-38.095-17.027-38.095-38.095 0-21.043 17.059-38.103 38.095-38.095 21.073.001 38.094 17.079 38.095 38.095.008 21.035-17.052 38.095-38.095 38.095z" fill="#ff0059"/></svg>