<svg height="512" viewBox="0 0 512 512" width="512" xmlns="http://www.w3.org/2000/svg"><g id="Flat"><path d="m408 120-2.61 24-37.39 344h-224l-3.47-31.96-33.92-312.04-2.61-24z" fill="#e0e0de"/><path d="m408 120-2.61 24-37.39 344h-224l-3.47-31.96c115.47-48.04 203.47-168.04 232.41-336.04z" fill="#d9d9d7"/><path d="m80 72h352v48h-352z" fill="#92563a"/><path d="m400 72h-288l16-48h256z" fill="#875036"/><path d="m416 200-24 208h-272l-24-208z" fill="#ffb531"/><g fill="#f5980c"><path d="m136 223.601h15.999v160.798h-15.999z" transform="matrix(.995 -.1 .1 .995 -29.534 15.837)"/><path d="m172 223.9h16v160.2h-16z" transform="matrix(.999 -.05 .05 .999 -14.956 9.368)"/><path d="m208 224h16v160h-16z"/><path d="m251.9 296h160.2v16h-160.2z" transform="matrix(.05 -.999 .999 .05 11.804 620.409)"/><path d="m288 224h16v160h-16z"/><path d="m248 224h16v160h-16z"/><path d="m287.601 296h160.798v15.999h-160.798z" transform="matrix(.099 -.995 .995 .099 28.895 639.929)"/></g><path d="m408 120-2.61 24h-298.78l-2.61-24z" fill="#d9d9d7"/><path d="m344 72h88v48h-88z" fill="#875036"/></g></svg>