<svg id="Layer_1" enable-background="new 0 0 512 512" height="512" viewBox="0 0 512 512" width="512" xmlns="http://www.w3.org/2000/svg"><g><g><g><path d="m368 134c-3.701 0-7.205.839-10.335 2.335 1.496-3.13 2.335-6.634 2.335-10.335 0-13.255-10.745-24-24-24s-24 10.745-24 24c0 6.627 2.686 12.627 7.029 16.971l-31.029 31.029 32 32 31.029-31.029c4.344 4.342 10.344 7.029 16.971 7.029 13.255 0 24-10.745 24-24s-10.745-24-24-24z" fill="#a5c3dc"/></g></g><g><path d="m360 126c0-13.255-10.745-24-24-24s-24 10.745-24 24c0 6.627 2.686 12.627 7.029 16.971l-31.029 31.029 16 16 42.335-42.335c8.081-3.863 13.665-12.112 13.665-21.665z" fill="#d7e6e6"/></g><g><path d="m362.667 302v-8c0-66.274-53.726-120-120-120h-58.667c-66.274 0-120 53.726-120 120v40c0 44.183 35.817 80 80 80h240c35.346 0 64-28.654 64-64 0-8.837-7.163-16-16-16h-37.333c-17.673 0-32-14.327-32-32z" fill="#d26e28"/></g><g><path d="m438.589 335.417c-11.254 18.338-31.495 30.583-54.589 30.583h-240c-42.988 0-78.044-33.909-79.91-76.437-.053 1.473-.09 2.95-.09 4.437v40c0 44.183 35.817 80 80 80h240c35.346 0 64-28.653 64-64 0-6.489-3.86-12.072-9.411-14.583z" fill="#a55023"/></g><g><g><circle cx="373.333" cy="400.666" fill="#f04b37" r="42.667"/></g><g><path d="m341.333 404.667c-2.209 0-4-1.791-4-4 0-19.851 16.149-36 36-36 2.209 0 4 1.791 4 4s-1.791 4-4 4c-15.439 0-28 12.561-28 28 0 2.209-1.791 4-4 4z" fill="#ff6955"/></g></g><g><g><circle cx="138.667" cy="400.666" fill="#f04b37" r="42.667"/></g><g><path d="m106.667 404.667c-2.209 0-4-1.791-4-4 0-19.851 16.149-36 36-36 2.209 0 4 1.791 4 4s-1.791 4-4 4c-15.439 0-28 12.561-28 28 0 2.209-1.791 4-4 4z" fill="#ff6955"/></g></g><g><path d="m90 302c-4.418 0-8-3.582-8-8 0-56.243 45.757-102 102-102 4.418 0 8 3.582 8 8s-3.582 8-8 8c-47.421 0-86 38.579-86 86 0 4.418-3.582 8-8 8z" fill="#f0be8c"/></g><g><path d="m32 414h448c8.837 0 16 7.163 16 16 0 8.837-7.163 16-16 16h-448c-8.837 0-16-7.163-16-16 0-8.837 7.163-16 16-16z" fill="#d7e6f0"/></g><g><path d="m77.333 446h357.334l-34.667 32h-288z" fill="#a5c3dc"/></g><g><path d="m335.963 207.477c.023-.552.037-1.056.037-1.478 0-26.51-21.49-48-48-48-.422 0-.925.014-1.477.037-1.504.046-2.99.16-4.457.341-28.059 2.869-122.066 23.666-122.066 111.623 0 35.346 28.654 64 64 64 87.958 0 108.754-94.007 111.622-122.066.181-1.467.295-2.953.341-4.457z" fill="#a55023"/></g><g><path d="m186 278c-4.418 0-8-3.582-8-8 0-30.978 14.103-55.326 41.917-72.372 21.396-13.113 47.838-19.693 63.979-21.344l.449-.051c.855-.105 1.798-.177 2.729-.204.034-.002.748-.027.904-.029h.063c4.39 0 7.964 3.54 7.999 7.937.034 4.419-3.519 8.028-7.937 8.063l-.465.019c-.531.017-.98.051-1.423.104l-.608.069c-14.555 1.488-38.229 7.37-57.332 19.078-23.383 14.331-34.275 32.993-34.275 58.73 0 4.418-3.582 8-8 8z" fill="#d26e28"/></g><g><path d="m208 122c-3.071 0-6.143-1.172-8.485-3.515-4.687-4.687-4.687-12.284 0-16.971 4.144-4.144 4.144-10.886 0-15.029-13.501-13.501-13.501-35.47 0-48.971 4.686-4.686 12.285-4.686 16.971 0 4.687 4.687 4.687 12.284 0 16.971-4.144 4.144-4.144 10.886 0 15.029 13.501 13.501 13.501 35.47 0 48.971-2.343 2.343-5.415 3.515-8.486 3.515z" fill="#aac3d7"/></g><g><path d="m288 122c-3.071 0-6.143-1.172-8.485-3.515-4.687-4.687-4.687-12.284 0-16.971 4.144-4.144 4.144-10.886 0-15.029-13.501-13.501-13.501-35.47 0-48.971 4.686-4.686 12.285-4.686 16.971 0 4.687 4.687 4.687 12.284 0 16.971-4.144 4.144-4.144 10.886 0 15.029 13.501 13.501 13.501 35.47 0 48.971-2.343 2.343-5.415 3.515-8.486 3.515z" fill="#aac3d7"/></g><g><path d="m128 122c-3.071 0-6.143-1.172-8.485-3.515-4.687-4.687-4.687-12.284 0-16.971 4.144-4.144 4.144-10.886 0-15.029-13.501-13.501-13.501-35.47 0-48.971 4.686-4.686 12.285-4.686 16.971 0 4.687 4.687 4.687 12.284 0 16.971-4.144 4.144-4.144 10.886 0 15.029 13.501 13.501 13.501 35.47 0 48.971-2.343 2.343-5.415 3.515-8.486 3.515z" fill="#aac3d7"/></g><g><path d="m464 382c-14.86 0-14.86 16-29.72 16s-14.86-16-29.72-16c-14.858 0-14.858 16-29.716 16-14.859 0-14.859-16-29.717-16s-14.858 16-29.716 16-14.858-16-29.715-16c-14.856 0-14.856 16-29.712 16s-14.856-16-29.711-16c-14.854 0-14.854 16-29.708 16-14.857 0-14.857-16-29.714-16-14.856 0-14.856 16-29.713 16-14.856 0-14.856-16-29.712-16s-14.856 16-29.712 16c-14.858 0-14.858-16-29.714-16-8.837 0-16 7.163-16 16v16h448v-16c0-8.837-7.163-16-16-16z" fill="#91b945"/></g></g></svg>