<svg id="Capa_1" enable-background="new 0 0 512 512" height="512" viewBox="0 0 512 512" width="512" xmlns="http://www.w3.org/2000/svg"><g><g><path d="m364.451 281.526 8.841 166.56c.288 5.418 4.765 9.664 10.19 9.664h98.459c5.426 0 9.903-4.246 10.191-9.664l8.841-166.56z" fill="#fb4a59"/><path d="m364.451 281.526 1.906 35.916h88.879c8.166 0 14.662 6.849 14.229 15.004l-6.136 115.64c-.286 5.419-4.766 9.664-10.195 9.664h28.808c5.429 0 9.899-4.245 10.184-9.664l8.848-166.563z" fill="#f82f40"/><path d="m501.795 295.318h-138.166c-5.636 0-10.205-4.569-10.205-10.205v-21.659c0-5.636 4.569-10.205 10.205-10.205h138.166c5.636 0 10.205 4.569 10.205 10.205v21.659c0 5.636-4.569 10.205-10.205 10.205z" fill="#d9ecfd"/><path d="m511.997 263.45v21.665c0 5.633-4.562 10.205-10.205 10.205h-28.686c5.633 0 10.205-4.572 10.205-10.205v-21.665c0-5.633-4.572-10.205-10.205-10.205h28.686c5.643 0 10.205 4.572 10.205 10.205z" fill="#a9d8fc"/></g><g><g><g><path d="m426.093 457.751h-298c-5.872 0-10.528-4.934-10.189-10.796l22.097-383.083c.309-5.398 4.78-9.622 10.188-9.622h15.69l16.122 47.481c1.411 4.141 5.295 6.923 9.663 6.923h170.856c4.368 0 8.252-2.781 9.663-6.923l16.122-47.481h15.69c5.408 0 9.88 4.224 10.189 9.622l22.097 383.083c.341 5.861-4.316 10.796-10.188 10.796z" fill="#fcc16d"/><path d="m263.501 252.214v43.371c0 5.636-4.569 10.205-10.205 10.205h-127.244l3.674-63.78h123.57c5.636-.001 10.205 4.568 10.205 10.204z" fill="#27e19d"/><path d="m263.501 252.214v43.371c0 5.633-4.572 10.205-10.205 10.205h-29.298c5.643 0 10.205-4.572 10.205-10.205v-43.371c0-5.633-4.562-10.205-10.205-10.205h29.298c5.633 0 10.205 4.572 10.205 10.205z" fill="#26d192"/><path d="m323.097 348.405v53.208c0 5.636-4.569 10.205-10.205 10.205h-192.953l4.245-73.618h188.708c5.636 0 10.205 4.569 10.205 10.205z" fill="#27e19d"/><path d="m323.097 348.405v53.208c0 5.633-4.572 10.205-10.205 10.205h-29.288c5.633 0 10.205-4.572 10.205-10.205v-53.208c0-5.633-4.572-10.205-10.205-10.205h29.288c5.633 0 10.205 4.572 10.205 10.205z" fill="#26d192"/><path d="m426.093 457.751h-33.347c5.862 0 10.528-4.945 10.189-10.796l-17.06-295.672c-.392-6.81-6.099-11.94-12.919-11.909h-191.593c-13.114 0-24.766-8.355-28.979-20.779l-13.279-39.116.896-15.617c.319-5.398 4.78-9.612 10.188-9.612h15.69l16.122 47.481c1.411 4.141 5.295 6.923 9.663 6.923h170.856c4.368 0 8.252-2.781 9.663-6.923l16.122-47.481h15.69c5.408 0 9.869 4.214 10.189 9.612l22.097 383.093c.33 5.851-4.316 10.796-10.188 10.796z" fill="#fca62f"/><path d="m152.089 54.25 19.614 57.782c1.405 4.14 5.291 6.925 9.663 6.925h191.454c4.372 0 8.258-2.785 9.663-6.925l19.614-57.782z" fill="#ffd597"/><path d="m402.092 54.251-19.614 57.78c-1.398 4.143-5.286 6.929-9.654 6.929h-33.349c4.368 0 8.256-2.786 9.664-6.929l19.614-57.78z" fill="#fcc16d"/></g><g><path d="m387.823 419.544h-14.653c-4.268 0-7.726-3.459-7.726-7.726s3.459-7.726 7.726-7.726h14.653c4.268 0 7.726 3.459 7.726 7.726s-3.458 7.726-7.726 7.726z" fill="#fca62f"/></g></g><g><g><path d="m28.063 174.186h129.199v-21.129c0-5.636-4.569-10.205-10.205-10.205h-108.789c-5.636 0-10.205 4.569-10.205 10.205z" fill="#a9d8fc"/><path d="m157.26 153.054v21.134h-28.063v-21.134c0-5.633-4.562-10.205-10.205-10.205h28.063c5.643 0 10.205 4.572 10.205 10.205z" fill="#8dcafc"/></g><g><path d="m170.042 205.903-12.857 242.185c-.288 5.419-4.759 9.663-10.189 9.663h-108.663c-5.429 0-9.9-4.244-10.189-9.663l-1.288-24.189c29.916-13.063 50.819-42.928 50.819-77.665 0-37.91-24.889-70-59.225-80.828l-3.163-59.503c-.309-5.841 4.337-10.745 10.188-10.745h134.377c5.842 0 10.499 4.903 10.19 10.745z" fill="#fb4a59"/><path d="m159.852 195.159-134.376-.005c-5.848 0-10.501 4.906-10.191 10.746l1.223 23.046h101.548c12.334 0 22.145 10.345 21.492 22.662l-10.423 196.478c-.286 5.419-4.766 9.664-10.195 9.664h28.063c5.429 0 9.909-4.245 10.195-9.664l12.848-242.181c.317-5.848-4.337-10.746-10.184-10.746z" fill="#f82f40"/><path d="m17.892 254.908 9.48 178.768c35.298-13.562 60.351-47.779 60.351-87.853.001-43.564-29.624-80.22-69.831-90.915z" fill="#27e19d"/><path d="m87.724 345.823c0 40.074-25.053 74.291-60.351 87.853l-.837-15.787c20.542-17.257 33.605-43.136 33.605-72.067 0-32.502-16.491-61.158-41.564-78.057l-.684-12.858c40.206 10.696 69.831 47.352 69.831 90.916z" fill="#26d192"/></g><g><path d="m10.205 207.714h164.916c5.636 0 10.205-4.569 10.205-10.205v-16.027c0-5.636-4.569-10.205-10.205-10.205h-164.916c-5.636.001-10.205 4.569-10.205 10.205v16.027c0 5.636 4.569 10.205 10.205 10.205z" fill="#d9ecfd"/><path d="m185.323 181.484v16.022c0 5.643-4.562 10.205-10.205 10.205h-28.063c5.643 0 10.205-4.562 10.205-10.205v-16.022c0-5.633-4.562-10.205-10.205-10.205h28.063c5.643.001 10.205 4.572 10.205 10.205z" fill="#a9d8fc"/></g><g><path d="m139.36 249.602h-14.653c-4.267 0-7.726-3.459-7.726-7.726s3.459-7.726 7.726-7.726h14.653c4.267 0 7.726 3.459 7.726 7.726s-3.459 7.726-7.726 7.726z" fill="#fcc16d"/></g><g><path d="m139.36 276.943h-46.697c-4.267 0-7.726-3.459-7.726-7.726s3.459-7.726 7.726-7.726h46.697c4.267 0 7.726 3.459 7.726 7.726s-3.459 7.726-7.726 7.726z" fill="#fcc16d"/></g><g><path d="m147.089 241.876c0 4.203-3.358 7.623-7.531 7.716-.237-6.15-3.08-11.662-7.479-15.442h7.283c4.266 0 7.727 3.461 7.727 7.726z" fill="#fca62f"/></g><g><path d="m147.089 269.217c0 4.265-3.461 7.726-7.726 7.726h-1.154l.814-15.453h.34c4.265.001 7.726 3.462 7.726 7.727z" fill="#fca62f"/></g></g></g></g></svg>