<svg height="512" viewBox="0 0 512 512" width="512" xmlns="http://www.w3.org/2000/svg"><g id="flat"><path d="m376.451 185.464 22.409-37.348-13.72-8.232-24 40a8 8 0 0 0 -1.14 4.116v24h16v-21.333z" fill="#808080"/><path d="m328 232 12.285 45.043a155.521 155.521 0 0 1 -1.079 85.6l-.3.989a50.8 50.8 0 0 1 -48.65 36.368h-50.256a16 16 0 0 1 -16-16v-43.16a53.9 53.9 0 0 1 24-44.84h-144a80 80 0 0 0 -80 80v56l288.019.012a50.578 50.578 0 0 0 39.149-18.551l.855-1.044a145.619 145.619 0 0 0 21.177-149.617c-7.485-17.464-13.2-30.8-13.2-30.8z" fill="#fb0200"/><path d="m384 200-48 8h-8v24l2.182 8h5.818l29.539 4.923 18.461 3.077 16-24z" fill="#e50000"/><rect fill="#b3b3b3" height="32" rx="16" width="40" x="376" y="128"/><path d="m384 200h24v48h-24z" fill="#d6d6d6"/><path d="m136 40h16v240h-16z" fill="#875632"/><path d="m24 120h128v160h-128z" fill="#5eae35"/><path d="m24 144h128v16h-128z" fill="#008c02"/><path d="m152 72-64-24 64-24z" fill="#5eae35"/><path d="m37.5 240c-4.555 0-9.057-.227-13.5-.656v40.656h128v-100.564a138.348 138.348 0 0 1 -114.5 60.564z" fill="#599b32"/><path d="m96 376a56 56 0 1 0 56 56 56 56 0 0 0 -56-56zm0 80a24 24 0 1 1 24-24 24 24 0 0 1 -24 24z" fill="#808080"/><path d="m72 432a23.949 23.949 0 0 1 1.371-8h-32.793a55.652 55.652 0 0 0 0 16h32.793a23.949 23.949 0 0 1 -1.371-8z" fill="#666"/><path d="m120 432a23.949 23.949 0 0 1 -1.371 8h32.793a55.652 55.652 0 0 0 0-16h-32.793a23.949 23.949 0 0 1 1.371 8z" fill="#666"/><path d="m224 192 24-24 24 24h56a16 16 0 0 1 16 16 16 16 0 0 1 -16 16h-72z" fill="#eabb9b"/><path d="m192 120h32v40h-32z" fill="#eabb9b"/><path d="m432 376a56 56 0 1 0 56 56 56 56 0 0 0 -56-56zm0 80a24 24 0 1 1 24-24 24 24 0 0 1 -24 24z" fill="#808080"/><path d="m432 376a56 56 0 0 0 -55.179 46.488 87.991 87.991 0 0 0 27.47-10.083l15.418-8.81a88 88 0 0 1 43.661-11.595h7.806a55.805 55.805 0 0 0 -39.176-16z" fill="#666"/><path d="m88 312h160v-16a16 16 0 0 0 -16-16h-123.508a16 16 0 0 0 -15.522 12.119z" fill="#875632"/><path d="m40 432a96 96 0 0 1 96-96 64 64 0 0 1 64 64 32 32 0 0 1 -32 32z" fill="#e50000"/><circle cx="88" cy="224" fill="#ffc933" r="32"/><path d="m88 224 21.465-42.931a47.982 47.982 0 0 0 -42.93 0z" fill="#ff8706"/><path d="m184 72v32a24 24 0 0 0 24 24h8a16 16 0 0 0 16-16v-40a24 24 0 0 0 -24-24 24 24 0 0 0 -24 24z" fill="#f9cdaf"/><path d="m248 336h32v48h-32z" fill="#ffc933"/><path d="m248 368v32h40a16 16 0 0 0 16-16 16 16 0 0 0 -16-16h-8a22.627 22.627 0 0 1 -32 0z" fill="#875632"/><path d="m236.686 156.686a16 16 0 0 0 -11.313-4.686h-25.373a16 16 0 0 0 -16 16v72h48v-40l24-24z" fill="#ffc933"/><circle cx="328" cy="224" fill="#4d4d4d" r="16"/><path d="m208 48a24 24 0 0 0 -24 24v8h48v-8a24 24 0 0 0 -24-24z" fill="#5eae35"/><path d="m184 72v16h64a8 8 0 0 0 8-8 8 8 0 0 0 -8-8z" fill="#008c02"/><rect fill="#ffb600" height="22.627" rx="4" transform="matrix(.707 -.707 .707 .707 -70.156 214.627)" width="8.001" x="220" y="180.686"/><path d="m184 232v24a24 24 0 0 0 24 24h24a16 16 0 0 1 16 16v48h32v-56a40 40 0 0 0 -40-40h-8v-16z" fill="#5eae35"/><path d="m352 416a72 72 0 0 1 72-72 59.082 59.082 0 0 1 54.856 37.139l1.144 2.861h-16.63a88 88 0 0 0 -43.661 11.6l-15.418 8.81a88 88 0 0 1 -43.661 11.59z" fill="#e50000"/></g></svg>