<svg height="512" viewBox="0 0 512 512" width="512" xmlns="http://www.w3.org/2000/svg"><g id="flat"><path d="m248 288v-32h54a10 10 0 0 1 10 10v30z" fill="#a45e14"/><path d="m440 64h48l-16 32 16 24h-44a4 4 0 0 1 -4-4z" fill="#e08122"/><path d="m440 44v60h-64v-64h60a4 4 0 0 1 4 4z" fill="#fd9226"/><path d="m376 168a8 8 0 0 1 -8-8v-120a8 8 0 0 1 16 0v120a8 8 0 0 1 -8 8z" fill="#c3c3c3"/><path d="m432.006 336a8 8 0 0 1 -3.584-15.157l27.578-13.787v-19.056a8 8 0 0 1 16 0v24a8 8 0 0 1 -4.422 7.155l-32 16a7.973 7.973 0 0 1 -3.572.845z" fill="#c3c3c3"/><circle cx="400" cy="416" fill="#744630" r="56"/><circle cx="400" cy="416" fill="#f9f9f9" r="32"/><circle cx="400" cy="416" fill="#a8a8a8" r="16"/><circle cx="96" cy="416" fill="#744630" r="56"/><circle cx="96" cy="416" fill="#f9f9f9" r="32"/><path d="m128 320-32 16h-16a56 56 0 0 0 -56 56h72l16 16h72z" fill="#5e8569"/><path d="m201.906 186.843h17.149a8.039 8.039 0 0 1 8.039 8.039 8.039 8.039 0 0 1 -8.039 8.039h-17.149a0 0 0 0 1 0 0v-16.078a0 0 0 0 1 0 0z" fill="#c3c3c3"/><path d="m205.89 202-26.31 13.16a8.725 8.725 0 0 1 -1.73.63 8.266 8.266 0 0 1 -1.85.21h-32a8 8 0 0 1 0-16h30.11l24.62-12.31a8 8 0 0 1 7.16 14.31z" fill="#c3c3c3"/><path d="m184 72-8 32h16v6.349a17.651 17.651 0 0 0 17.651 17.651h62.349l-15.029-15.029a57.94 57.94 0 0 1 -16.971-40.971z" fill="#fdc9a6"/><path d="m278.25 129.5 33.75 94.5h-56l-27.415-76.762a26.369 26.369 0 0 1 24.832-35.238 26.368 26.368 0 0 1 24.833 17.5z" fill="#e08122"/><path d="m248 288v2.5a26.327 26.327 0 0 0 22.814 26.108l.6.081a28.265 28.265 0 0 1 24.586 28v11.077a28.233 28.233 0 0 1 -28.232 28.234h-75.768l-22.85-30.467a79.924 79.924 0 0 1 -11.863-73.287l14.666-43.878a13 13 0 0 0 -8.221-16.457l-.3-.1a13.362 13.362 0 0 0 -16.443 7.133c-7.148 15.782-20.387 44.927-28.371 62.5a24.834 24.834 0 0 1 -22.618 14.556v32h24l64 80h120l24-16h160a141.687 141.687 0 0 0 -138.542-112z" fill="#6b9777"/><path d="m344 178v110h144v-110a26 26 0 0 0 -26-26h-92a26 26 0 0 0 -26 26z" fill="#da922a"/><path d="m370 152h92a26 26 0 0 1 26 26v22a0 0 0 0 1 0 0h-144a0 0 0 0 1 0 0v-22a26 26 0 0 1 26-26z" fill="#fbb540"/><path d="m480 400h-144a40 40 0 0 1 0-80c2.68 0 5.34.06 8 .19a168.726 168.726 0 0 1 56 12.4q7.185 2.925 14.05 6.51a168.953 168.953 0 0 1 60.41 52.99z" fill="#5e8569"/><path d="m400 332.59v15.41a4 4 0 0 1 -4 4h-48a4 4 0 0 1 -4-4v-27.81a168.726 168.726 0 0 1 56 12.4z" fill="#55785f"/><circle cx="96" cy="416" fill="#a8a8a8" r="16"/><path d="m104 192h36a20 20 0 0 1 20 20 20 20 0 0 1 -20 20h-36a0 0 0 0 1 0 0v-40a0 0 0 0 1 0 0z" fill="#5e8569"/><path d="m288.132 167.962 2.868 10.038h-32l-3.462-12.118z" fill="#fdc9a6"/><path d="m312 240a16 16 0 0 1 -16 16h-56l16 96h-32l-15.793-86.967a34.3 34.3 0 0 1 33.638-41.033h54.155a16 16 0 0 1 16 16z" fill="#744630"/><path d="m208 384v-16a16 16 0 0 1 16-16h32v32z" fill="#dbdbdb"/><path d="m240 72h-56v-22a10 10 0 0 1 10-10h36a10 10 0 0 1 10 10z" fill="#fd9226"/><path d="m240 80h-88a8 8 0 0 1 0-16h88a8 8 0 0 1 0 16z" fill="#e08122"/><path d="m440 240h-48a8 8 0 0 1 0-16h48a8 8 0 0 1 0 16z" fill="#c38325"/><g fill="#fbd699"><path d="m296 88h-24a8 8 0 0 1 0-16h24a8 8 0 0 1 0 16z"/><path d="m320 56h-40a8 8 0 0 1 0-16h40a8 8 0 0 1 0 16z"/><path d="m336 120h-32a8 8 0 0 1 0-16h32a8 8 0 0 1 0 16z"/></g><path d="m288 168h-32l-10.4-36.389a15.384 15.384 0 0 1 14.8-19.611 15.384 15.384 0 0 1 14.792 11.158z" fill="#fd9226"/><path d="m280 168h-72a16 16 0 0 0 -16 16v16h88a16 16 0 0 0 16-16 16 16 0 0 0 -16-16z" fill="#fdc9a6"/><path d="m104 192h16v40h-16z" fill="#6b9777"/><path d="m208 376h48v8h-48z" fill="#c3c3c3"/><path d="m456 288h16v8h-16z" fill="#a8a8a8"/></g></svg>